<svg height="512pt" viewBox="-76 0 512 512" width="512pt" xmlns="http://www.w3.org/2000/svg"><path d="m179.996094 481.722656c-13.339844 0-25.90625-5.863281-34.476563-16.082031l-70.980469-84.601563c-5.804687 2.515626-11.203124 5.242188-16.117187 8.183594-27.621094 16.519532-33.421875 35.097656-33.421875 47.777344 0 22.402344 17.789062 42.367188 50.097656 56.214844 28.265625 12.113281 65.519532 18.785156 104.902344 18.785156s76.636719-6.671875 104.902344-18.785156c32.308594-13.847656 50.097656-33.8125 50.097656-56.214844 0-12.679688-5.800781-31.261719-33.425781-47.78125-4.914063-2.941406-10.316407-5.667969-16.121094-8.183594l-70.980469 84.609375c-8.570312 10.214844-21.136718 16.078125-34.476562 16.078125zm0 0"/><path d="m180 0c-99.253906 0-180 80.746094-180 180 0 42.0625 14.8125 82.953125 41.714844 115.214844.125.167968.257812.328125.390625.488281l126.398437 150.65625c2.851563 3.398437 7.058594 5.359375 11.492188 5.359375s8.640625-1.960938 11.488281-5.359375l126.398437-150.65625c.097657-.113281.191407-.226563.28125-.347656 26.984376-32.285157 41.835938-73.230469 41.835938-115.355469 0-99.253906-80.746094-180-180-180zm0 331c-8.285156 0-15-6.714844-15-15s6.714844-15 15-15 15 6.714844 15 15-6.714844 15-15 15zm15-75c0 8.285156-6.714844 15-15 15s-15-6.714844-15-15v-160c0-8.285156 6.714844-15 15-15s15 6.714844 15 15zm0 0"/></svg>