<svg height="512pt" viewBox="0 0 512 512.00052" width="512pt" xmlns="http://www.w3.org/2000/svg"><path d="m497 512h-482c-8.285156 0-15-6.714844-15-15v-60c0-8.285156 6.714844-15 15-15h482c8.285156 0 15 6.714844 15 15v60c0 8.285156-6.714844 15-15 15zm0 0"/><path d="m412.199219 154.875c-9.03125 2.417969-18.464844 1.175781-26.558594-3.496094-8.097656-4.675781-13.890625-12.222656-16.308594-21.253906l-14.234375-53.125-44.527344 11.929688-80.28125-84.273438c-3.785156-3.976562-9.441406-5.566406-14.742187-4.144531l-57.957031 15.53125c-4.511719 1.207031-8.207032 4.453125-9.988282 8.777343-1.78125 4.324219-1.441406 9.230469.914063 13.265626l47.550781 81.527343-76.839844 20.585938-28.886718-43.753907c-3.558594-5.390624-10.164063-7.898437-16.402344-6.226562l-57.957031 15.53125c-3.84375 1.027344-7.117188 3.542969-9.105469 6.988281-1.988281 3.445313-2.527344 7.539063-1.5 11.382813l15.53125 57.953125c9.332031 34.832031 31.671875 63.945312 62.898438 81.972656 31.230468 18.03125 67.609374 22.820313 102.441406 13.488281l48.644531-13.035156-.417969 94.378906c-.023437 4.675782 2.136719 9.089844 5.839844 11.945313s8.527344 3.820312 13.039062 2.609375l57.957032-15.527344c1.285156-.347656 2.496094-.851562 3.617187-1.5 3.507813-2.023438 6.097657-5.417969 7.078125-9.460938l27.390625-113.125 116.96875-31.34375c4.75-1.273437 9.1875-3.132812 13.257813-5.480468 21.027344-12.144532 32.210937-37.335938 25.632812-61.878906-.433594-1.617188-.910156-3.214844-1.421875-4.796876zm0 0"/><path d="m404.433594 125.898438 85.355468-22.871094c-7.636718-10.285156-17.367187-18.996094-28.796874-25.597656-21.976563-12.683594-47.574219-16.054688-72.085938-9.488282l-4.828125 1.292969 14.234375 53.128906c.464844 1.738281 1.660156 2.648438 2.328125 3.035157.667969.386718 2.050781.964843 3.792969.5zm0 0"/></svg>